%
M48
M72
T01C0.0320
T02C0.0360
T03C0.0400
T04C0.0440
T05C0.0470
T06C0.0512
T07C0.1575
%
T01
X11531Y2825
X11531Y5825
X11649Y7573
X11649Y10573
X11602Y12345
X11602Y15345
X11602Y16959
X11602Y19959
X11602Y21770
X11602Y24770
X11602Y26581
X11602Y29581
X14488Y31219
X15488Y31219
X20905Y28998
X20905Y24998
X21519Y22491
X21519Y21491
X21519Y20491
X21519Y19491
X21519Y18491
X21519Y17491
X21519Y16491
X21519Y15491
X21519Y14491
X21519Y13491
X21519Y12491
X21519Y11491
X21519Y10491
X21519Y9491
X24519Y9491
X24519Y10491
X24519Y11491
X24519Y12491
X24519Y13491
X24519Y14491
X24519Y15491
X24519Y16491
X24519Y17491
X24519Y18491
X24519Y19491
X24519Y20491
X24519Y21491
X24519Y22491
X29243Y22148
X29243Y18998
X29243Y15849
X29243Y12699
X33243Y12699
X35255Y12806
X35255Y11806
X35255Y9656
X35255Y8656
X33243Y9550
X33243Y6400
X35255Y6506
X35255Y5506
X38255Y5506
X38255Y6506
X38255Y8656
X38255Y9656
X38255Y11806
X38255Y12806
X38255Y14955
X38255Y15955
X35255Y15955
X35255Y14955
X33243Y15849
X35255Y18105
X35255Y19105
X33243Y18998
X35255Y21254
X35255Y22254
X33243Y22148
X35255Y24404
X35255Y25404
X33243Y25298
X35255Y27554
X35255Y28554
X33243Y28447
X29243Y28447
X29243Y25298
X38255Y25404
X38255Y24404
X38255Y22254
X38255Y21254
X38255Y19105
X38255Y18105
X41054Y18211
X41054Y19392
X41054Y21361
X41054Y22542
X41054Y24510
X41054Y25691
X41054Y27660
X41054Y28841
X38255Y28554
X38255Y27554
X45054Y27660
X45054Y28841
X45054Y25691
X45054Y24510
X45054Y22542
X45054Y21361
X45054Y19392
X45054Y18211
X45054Y16243
X45054Y15061
X45054Y13093
X45054Y11912
X45054Y9943
X45054Y8762
X45054Y6794
X45054Y5613
X45054Y3644
X45054Y2463
X41054Y2463
X41054Y3644
X41054Y5613
X41054Y6794
X41054Y8762
X41054Y9943
X41054Y11912
X41054Y13093
X41054Y15061
X41054Y16243
X29243Y9550
X29243Y6400
X29243Y3250
X33243Y3250
X35255Y3357
X35255Y2357
X38255Y2357
X38255Y3357
X19098Y13178
X17086Y13569
X17086Y12569
X17086Y15187
X17086Y16187
X19098Y15078
X2110Y31700
X2110Y33100
X2110Y35094
X2110Y36494
X4881Y36128
X4881Y35128
X4913Y33467
X4913Y32467
T02
X15889Y24617
X15889Y23617
X16964Y10731
X17964Y10731
X17964Y9156
X16964Y9156
X15995Y7581
X14995Y7581
X14995Y6006
X15995Y6006
X15995Y4431
X14995Y4431
X36121Y30164
X37121Y30164
X37121Y32384
X36121Y32384
T03
X24244Y28082
X22464Y28082
X22464Y25522
X24244Y25522
X22779Y31187
X21779Y31187
X20779Y31187
X19779Y31187
X18779Y31187
X17779Y31187
X6621Y29447
X6621Y28447
X6621Y27447
X6621Y24723
X6621Y23723
X6621Y22723
X6621Y19998
X6621Y18998
X6621Y17998
X6621Y15274
X6621Y14274
X6621Y13274
X6621Y10550
X6621Y9550
X6621Y8550
X6621Y5825
X6621Y4825
X6621Y3825
X21897Y4321
X22897Y4321
X23897Y4321
X23897Y5321
X22897Y5321
X21897Y5321
X6543Y33101
X6543Y34101
X6543Y35101
T04
X33180Y35928
X37180Y35928
T05
X48371Y32991
X48371Y30991
X48371Y26715
X48371Y24715
X48371Y22715
X48371Y20715
X48371Y18715
X48371Y16715
X48371Y14715
X48371Y12715
X48371Y9821
X48371Y7821
X48371Y5821
X48371Y3821
T06
X2852Y3825
X2852Y5825
X2852Y8550
X2852Y10550
X2852Y13274
X2852Y15274
X2856Y17998
X2856Y19998
X2856Y22723
X2856Y24723
X2853Y27448
X2850Y29448
T07
X1716Y1676
X18251Y2857
X49354Y1676
X26913Y30022
X9590Y36715
X48960Y35928
M30
